<svg width="315" height="290" viewBox="0 0 315 290" fill="none" xmlns="http://www.w3.org/2000/svg">
<path d="M215.158 102.749V289.223H219.112C250.741 290.492 314 274.001 314 197.889C314 121.777 248.105 102.749 215.158 102.749Z" fill="black" stroke="black"/>
<path d="M228.438 1H116.316C116.316 57.5273 170.444 81.0804 197.508 85.791H305.763C302.67 26.4373 252.924 4.53296 228.438 1Z" fill="black" stroke="black"/>
<path d="M99.842 187.541V1.06645H95.8884C64.2589 -0.202087 0.999939 16.2888 0.999939 92.4007C0.999939 168.513 66.8947 187.541 99.842 187.541Z" fill="black" stroke="black"/>
<path d="M86.5623 289.289H198.684C198.684 232.762 144.556 209.209 117.492 204.498H9.23683C12.3298 263.852 62.0759 285.756 86.5623 289.289Z" fill="black" stroke="black"/>
</svg>
