<svg width="289" height="43" viewBox="0 0 289 43" fill="none" xmlns="http://www.w3.org/2000/svg">
<path d="M58.6646 5.55V10.9H52.0146V5.55H58.6646ZM52.5146 16.1H58.1146V41H52.5146V16.1Z" fill="black"/>
<path d="M64.7622 16.1H70.3122V41H64.7622V16.1ZM80.8122 15.55C82.2456 15.55 83.5622 15.75 84.7622 16.15C85.9956 16.55 87.0456 17.1667 87.9122 18C88.8122 18.8 89.4956 19.8 89.9622 21C90.4622 22.2 90.7122 23.6167 90.7122 25.25V41H85.1622V26.35C85.1622 24.3167 84.6622 22.8167 83.6622 21.85C82.6956 20.85 81.1622 20.35 79.0622 20.35C77.4622 20.35 75.9956 20.7 74.6622 21.4C73.3622 22.0667 72.2956 22.95 71.4622 24.05C70.6289 25.1167 70.1456 26.3 70.0122 27.6L69.9622 24.9C70.1289 23.6667 70.4956 22.5 71.0622 21.4C71.6289 20.2667 72.3789 19.2667 73.3122 18.4C74.2456 17.5 75.3456 16.8 76.6122 16.3C77.8789 15.8 79.2789 15.55 80.8122 15.55ZM100.662 15.55C102.129 15.55 103.462 15.75 104.662 16.15C105.862 16.55 106.896 17.1667 107.762 18C108.662 18.8 109.362 19.8 109.862 21C110.362 22.2 110.612 23.6167 110.612 25.25V41H105.012V26.35C105.012 24.3167 104.512 22.8167 103.512 21.85C102.546 20.85 101.012 20.35 98.9122 20.35C97.3122 20.35 95.8456 20.7 94.5122 21.4C93.2122 22.0667 92.1456 22.95 91.3122 24.05C90.5122 25.1167 90.0456 26.3 89.9122 27.6L89.8122 24.8C89.9789 23.6 90.3622 22.45 90.9622 21.35C91.5622 20.2167 92.3289 19.2167 93.2622 18.35C94.1956 17.4833 95.2789 16.8 96.5122 16.3C97.7789 15.8 99.1622 15.55 100.662 15.55Z" fill="black"/>
<path d="M115.615 32.8H120.765C121.032 34.0667 121.715 35.1 122.815 35.9C123.915 36.6667 125.399 37.05 127.265 37.05C128.465 37.05 129.399 36.9167 130.065 36.65C130.765 36.3833 131.249 36.0167 131.515 35.55C131.815 35.0833 131.965 34.55 131.965 33.95C131.965 33.2167 131.749 32.65 131.315 32.25C130.915 31.85 130.315 31.5167 129.515 31.25C128.715 30.9833 127.715 30.75 126.515 30.55C125.282 30.25 124.065 29.9167 122.865 29.55C121.665 29.1833 120.582 28.7333 119.615 28.2C118.649 27.6333 117.882 26.9333 117.315 26.1C116.782 25.2333 116.515 24.1833 116.515 22.95C116.515 21.8167 116.765 20.8 117.265 19.9C117.799 18.9667 118.532 18.1833 119.465 17.55C120.399 16.9167 121.499 16.4333 122.765 16.1C124.032 15.7333 125.415 15.55 126.915 15.55C129.082 15.55 130.882 15.9 132.315 16.6C133.782 17.3 134.882 18.2833 135.615 19.55C136.382 20.8167 136.765 22.2667 136.765 23.9H131.865C131.599 22.5667 131.082 21.6 130.315 21C129.549 20.4 128.399 20.1 126.865 20.1C125.332 20.1 124.165 20.3667 123.365 20.9C122.565 21.4333 122.165 22.1667 122.165 23.1C122.165 23.8 122.415 24.3667 122.915 24.8C123.449 25.2 124.199 25.55 125.165 25.85C126.132 26.15 127.265 26.45 128.565 26.75C129.765 27.0833 130.899 27.4333 131.965 27.8C133.032 28.1333 133.982 28.5667 134.815 29.1C135.682 29.6 136.365 30.2667 136.865 31.1C137.365 31.9333 137.615 32.9667 137.615 34.2C137.615 35.7333 137.199 37.05 136.365 38.15C135.565 39.25 134.399 40.1 132.865 40.7C131.332 41.2667 129.482 41.55 127.315 41.55C125.415 41.55 123.765 41.3333 122.365 40.9C120.999 40.4667 119.849 39.9 118.915 39.2C118.015 38.5 117.315 37.75 116.815 36.95C116.315 36.15 115.965 35.3833 115.765 34.65C115.599 33.9167 115.549 33.3 115.615 32.8Z" fill="black"/>
<path d="M148.243 30.15V25.4H161.343C163.176 25.4 164.643 24.8667 165.743 23.8C166.876 22.7333 167.443 21.3 167.443 19.5C167.443 17.6333 166.876 16.1833 165.743 15.15C164.643 14.0833 163.176 13.55 161.343 13.55H149.043V41H143.343V8.6H160.943C162.643 8.6 164.226 8.83333 165.693 9.3C167.16 9.73333 168.443 10.4 169.543 11.3C170.676 12.2 171.543 13.3333 172.143 14.7C172.776 16.0333 173.093 17.6333 173.093 19.5C173.093 21.3333 172.776 22.9333 172.143 24.3C171.543 25.6333 170.676 26.7333 169.543 27.6C168.443 28.4667 167.16 29.1167 165.693 29.55C164.226 29.95 162.643 30.15 160.943 30.15H148.243Z" fill="black"/>
<path d="M190.903 41.55C188.136 41.55 185.653 41.05 183.453 40.05C181.253 39.05 179.52 37.5833 178.253 35.65C176.986 33.7167 176.353 31.3667 176.353 28.6C176.353 25.8667 176.986 23.5333 178.253 21.6C179.52 19.6333 181.253 18.1333 183.453 17.1C185.653 16.0667 188.136 15.55 190.903 15.55C193.67 15.55 196.136 16.0667 198.303 17.1C200.47 18.1333 202.17 19.6333 203.403 21.6C204.67 23.5333 205.303 25.8667 205.303 28.6C205.303 31.3667 204.67 33.7167 203.403 35.65C202.17 37.5833 200.47 39.05 198.303 40.05C196.136 41.05 193.67 41.55 190.903 41.55ZM190.903 37C192.503 37 193.97 36.6833 195.303 36.05C196.636 35.4167 197.686 34.4667 198.453 33.2C199.253 31.9333 199.653 30.4 199.653 28.6C199.653 26.8 199.253 25.2667 198.453 24C197.686 22.7333 196.636 21.7667 195.303 21.1C194.003 20.4 192.536 20.05 190.903 20.05C189.27 20.05 187.786 20.3833 186.453 21.05C185.12 21.7167 184.036 22.6833 183.203 23.95C182.403 25.2167 182.003 26.7667 182.003 28.6C182.003 30.4 182.403 31.9333 183.203 33.2C184.003 34.4667 185.07 35.4167 186.403 36.05C187.77 36.6833 189.27 37 190.903 37Z" fill="black"/>
<path d="M210.27 16.1H215.82V41H210.27V16.1ZM224.82 20.85C223.02 20.85 221.47 21.2333 220.17 22C218.903 22.7667 217.887 23.7 217.12 24.8C216.353 25.9 215.82 26.9667 215.52 28L215.47 25.2C215.503 24.8333 215.62 24.2833 215.82 23.55C216.02 22.7833 216.32 21.95 216.72 21.05C217.153 20.15 217.72 19.2833 218.42 18.45C219.153 17.5833 220.037 16.8833 221.07 16.35C222.137 15.8167 223.387 15.55 224.82 15.55V20.85Z" fill="black"/>
<path d="M227.368 16.1H244.968V20.65H227.368V16.1ZM233.368 9.4H238.968V41H233.368V9.4Z" fill="black"/>
<path d="M260.042 41.55C257.775 41.55 255.692 41 253.792 39.9C251.925 38.8 250.425 37.2833 249.292 35.35C248.192 33.3833 247.642 31.1333 247.642 28.6C247.642 26 248.209 23.7333 249.342 21.8C250.475 19.8333 252.009 18.3 253.942 17.2C255.875 16.1 258.042 15.55 260.442 15.55C263.109 15.55 265.225 16.1333 266.792 17.3C268.359 18.4667 269.475 20.0333 270.142 22C270.809 23.9667 271.142 26.1667 271.142 28.6C271.142 29.9667 270.942 31.4167 270.542 32.95C270.142 34.45 269.509 35.85 268.642 37.15C267.809 38.45 266.675 39.5167 265.242 40.35C263.842 41.15 262.109 41.55 260.042 41.55ZM261.742 36.95C263.609 36.95 265.192 36.6 266.492 35.9C267.825 35.1667 268.825 34.1667 269.492 32.9C270.192 31.6333 270.542 30.2 270.542 28.6C270.542 26.8333 270.192 25.3333 269.492 24.1C268.792 22.8333 267.792 21.8667 266.492 21.2C265.192 20.5 263.609 20.15 261.742 20.15C259.075 20.15 257.009 20.9333 255.542 22.5C254.075 24.0667 253.342 26.1 253.342 28.6C253.342 30.2333 253.692 31.6833 254.392 32.95C255.125 34.2167 256.125 35.2 257.392 35.9C258.659 36.6 260.109 36.95 261.742 36.95ZM270.542 16.1H276.142V41H270.942C270.942 41 270.909 40.6833 270.842 40.05C270.775 39.4167 270.709 38.65 270.642 37.75C270.575 36.8167 270.542 35.9333 270.542 35.1V16.1Z" fill="black"/>
<path d="M282.743 6.1H288.293V41H282.743V6.1Z" fill="black"/>
<path d="M31.943 15.4704V41.9904H32.5053C37.0036 42.1708 46.0001 39.8255 46.0001 29.001C46.0001 18.1765 36.6287 15.4704 31.943 15.4704Z" fill="black"/>
<path d="M33.8316 1H17.8858C17.8858 9.03922 25.5838 12.3889 29.4328 13.0588H44.8287C44.3888 4.61765 37.314 1.50245 33.8316 1Z" fill="black"/>
<path d="M15.543 27.5296V1.00959H14.9807C10.4824 0.829185 1.48584 3.17449 1.48584 13.999C1.48584 24.8235 10.8573 27.5296 15.543 27.5296Z" fill="black"/>
<path d="M13.6544 42H29.6001C29.6001 33.9608 21.9022 30.6111 18.0532 29.9412H2.65727C3.09715 38.3824 10.1719 41.4975 13.6544 42Z" fill="black"/>
<path d="M58.6646 5.55V10.9H52.0146V5.55H58.6646ZM52.5146 16.1H58.1146V41H52.5146V16.1Z" stroke="black"/>
<path d="M64.7622 16.1H70.3122V41H64.7622V16.1ZM80.8122 15.55C82.2456 15.55 83.5622 15.75 84.7622 16.15C85.9956 16.55 87.0456 17.1667 87.9122 18C88.8122 18.8 89.4956 19.8 89.9622 21C90.4622 22.2 90.7122 23.6167 90.7122 25.25V41H85.1622V26.35C85.1622 24.3167 84.6622 22.8167 83.6622 21.85C82.6956 20.85 81.1622 20.35 79.0622 20.35C77.4622 20.35 75.9956 20.7 74.6622 21.4C73.3622 22.0667 72.2956 22.95 71.4622 24.05C70.6289 25.1167 70.1456 26.3 70.0122 27.6L69.9622 24.9C70.1289 23.6667 70.4956 22.5 71.0622 21.4C71.6289 20.2667 72.3789 19.2667 73.3122 18.4C74.2456 17.5 75.3456 16.8 76.6122 16.3C77.8789 15.8 79.2789 15.55 80.8122 15.55ZM100.662 15.55C102.129 15.55 103.462 15.75 104.662 16.15C105.862 16.55 106.896 17.1667 107.762 18C108.662 18.8 109.362 19.8 109.862 21C110.362 22.2 110.612 23.6167 110.612 25.25V41H105.012V26.35C105.012 24.3167 104.512 22.8167 103.512 21.85C102.546 20.85 101.012 20.35 98.9122 20.35C97.3122 20.35 95.8456 20.7 94.5122 21.4C93.2122 22.0667 92.1456 22.95 91.3122 24.05C90.5122 25.1167 90.0456 26.3 89.9122 27.6L89.8122 24.8C89.9789 23.6 90.3622 22.45 90.9622 21.35C91.5622 20.2167 92.3289 19.2167 93.2622 18.35C94.1956 17.4833 95.2789 16.8 96.5122 16.3C97.7789 15.8 99.1622 15.55 100.662 15.55Z" stroke="black"/>
<path d="M115.615 32.8H120.765C121.032 34.0667 121.715 35.1 122.815 35.9C123.915 36.6667 125.399 37.05 127.265 37.05C128.465 37.05 129.399 36.9167 130.065 36.65C130.765 36.3833 131.249 36.0167 131.515 35.55C131.815 35.0833 131.965 34.55 131.965 33.95C131.965 33.2167 131.749 32.65 131.315 32.25C130.915 31.85 130.315 31.5167 129.515 31.25C128.715 30.9833 127.715 30.75 126.515 30.55C125.282 30.25 124.065 29.9167 122.865 29.55C121.665 29.1833 120.582 28.7333 119.615 28.2C118.649 27.6333 117.882 26.9333 117.315 26.1C116.782 25.2333 116.515 24.1833 116.515 22.95C116.515 21.8167 116.765 20.8 117.265 19.9C117.799 18.9667 118.532 18.1833 119.465 17.55C120.399 16.9167 121.499 16.4333 122.765 16.1C124.032 15.7333 125.415 15.55 126.915 15.55C129.082 15.55 130.882 15.9 132.315 16.6C133.782 17.3 134.882 18.2833 135.615 19.55C136.382 20.8167 136.765 22.2667 136.765 23.9H131.865C131.599 22.5667 131.082 21.6 130.315 21C129.549 20.4 128.399 20.1 126.865 20.1C125.332 20.1 124.165 20.3667 123.365 20.9C122.565 21.4333 122.165 22.1667 122.165 23.1C122.165 23.8 122.415 24.3667 122.915 24.8C123.449 25.2 124.199 25.55 125.165 25.85C126.132 26.15 127.265 26.45 128.565 26.75C129.765 27.0833 130.899 27.4333 131.965 27.8C133.032 28.1333 133.982 28.5667 134.815 29.1C135.682 29.6 136.365 30.2667 136.865 31.1C137.365 31.9333 137.615 32.9667 137.615 34.2C137.615 35.7333 137.199 37.05 136.365 38.15C135.565 39.25 134.399 40.1 132.865 40.7C131.332 41.2667 129.482 41.55 127.315 41.55C125.415 41.55 123.765 41.3333 122.365 40.9C120.999 40.4667 119.849 39.9 118.915 39.2C118.015 38.5 117.315 37.75 116.815 36.95C116.315 36.15 115.965 35.3833 115.765 34.65C115.599 33.9167 115.549 33.3 115.615 32.8Z" stroke="black"/>
<path d="M148.243 30.15V25.4H161.343C163.176 25.4 164.643 24.8667 165.743 23.8C166.876 22.7333 167.443 21.3 167.443 19.5C167.443 17.6333 166.876 16.1833 165.743 15.15C164.643 14.0833 163.176 13.55 161.343 13.55H149.043V41H143.343V8.6H160.943C162.643 8.6 164.226 8.83333 165.693 9.3C167.16 9.73333 168.443 10.4 169.543 11.3C170.676 12.2 171.543 13.3333 172.143 14.7C172.776 16.0333 173.093 17.6333 173.093 19.5C173.093 21.3333 172.776 22.9333 172.143 24.3C171.543 25.6333 170.676 26.7333 169.543 27.6C168.443 28.4667 167.16 29.1167 165.693 29.55C164.226 29.95 162.643 30.15 160.943 30.15H148.243Z" stroke="black"/>
<path d="M190.903 41.55C188.136 41.55 185.653 41.05 183.453 40.05C181.253 39.05 179.52 37.5833 178.253 35.65C176.986 33.7167 176.353 31.3667 176.353 28.6C176.353 25.8667 176.986 23.5333 178.253 21.6C179.52 19.6333 181.253 18.1333 183.453 17.1C185.653 16.0667 188.136 15.55 190.903 15.55C193.67 15.55 196.136 16.0667 198.303 17.1C200.47 18.1333 202.17 19.6333 203.403 21.6C204.67 23.5333 205.303 25.8667 205.303 28.6C205.303 31.3667 204.67 33.7167 203.403 35.65C202.17 37.5833 200.47 39.05 198.303 40.05C196.136 41.05 193.67 41.55 190.903 41.55ZM190.903 37C192.503 37 193.97 36.6833 195.303 36.05C196.636 35.4167 197.686 34.4667 198.453 33.2C199.253 31.9333 199.653 30.4 199.653 28.6C199.653 26.8 199.253 25.2667 198.453 24C197.686 22.7333 196.636 21.7667 195.303 21.1C194.003 20.4 192.536 20.05 190.903 20.05C189.27 20.05 187.786 20.3833 186.453 21.05C185.12 21.7167 184.036 22.6833 183.203 23.95C182.403 25.2167 182.003 26.7667 182.003 28.6C182.003 30.4 182.403 31.9333 183.203 33.2C184.003 34.4667 185.07 35.4167 186.403 36.05C187.77 36.6833 189.27 37 190.903 37Z" stroke="black"/>
<path d="M210.27 16.1H215.82V41H210.27V16.1ZM224.82 20.85C223.02 20.85 221.47 21.2333 220.17 22C218.903 22.7667 217.887 23.7 217.12 24.8C216.353 25.9 215.82 26.9667 215.52 28L215.47 25.2C215.503 24.8333 215.62 24.2833 215.82 23.55C216.02 22.7833 216.32 21.95 216.72 21.05C217.153 20.15 217.72 19.2833 218.42 18.45C219.153 17.5833 220.037 16.8833 221.07 16.35C222.137 15.8167 223.387 15.55 224.82 15.55V20.85Z" stroke="black"/>
<path d="M227.368 16.1H244.968V20.65H227.368V16.1ZM233.368 9.4H238.968V41H233.368V9.4Z" stroke="black"/>
<path d="M260.042 41.55C257.775 41.55 255.692 41 253.792 39.9C251.925 38.8 250.425 37.2833 249.292 35.35C248.192 33.3833 247.642 31.1333 247.642 28.6C247.642 26 248.209 23.7333 249.342 21.8C250.475 19.8333 252.009 18.3 253.942 17.2C255.875 16.1 258.042 15.55 260.442 15.55C263.109 15.55 265.225 16.1333 266.792 17.3C268.359 18.4667 269.475 20.0333 270.142 22C270.809 23.9667 271.142 26.1667 271.142 28.6C271.142 29.9667 270.942 31.4167 270.542 32.95C270.142 34.45 269.509 35.85 268.642 37.15C267.809 38.45 266.675 39.5167 265.242 40.35C263.842 41.15 262.109 41.55 260.042 41.55ZM261.742 36.95C263.609 36.95 265.192 36.6 266.492 35.9C267.825 35.1667 268.825 34.1667 269.492 32.9C270.192 31.6333 270.542 30.2 270.542 28.6C270.542 26.8333 270.192 25.3333 269.492 24.1C268.792 22.8333 267.792 21.8667 266.492 21.2C265.192 20.5 263.609 20.15 261.742 20.15C259.075 20.15 257.009 20.9333 255.542 22.5C254.075 24.0667 253.342 26.1 253.342 28.6C253.342 30.2333 253.692 31.6833 254.392 32.95C255.125 34.2167 256.125 35.2 257.392 35.9C258.659 36.6 260.109 36.95 261.742 36.95ZM270.542 16.1H276.142V41H270.942C270.942 41 270.909 40.6833 270.842 40.05C270.775 39.4167 270.709 38.65 270.642 37.75C270.575 36.8167 270.542 35.9333 270.542 35.1V16.1Z" stroke="black"/>
<path d="M282.743 6.1H288.293V41H282.743V6.1Z" stroke="black"/>
<path d="M31.943 15.4704V41.9904H32.5053C37.0036 42.1708 46.0001 39.8255 46.0001 29.001C46.0001 18.1765 36.6287 15.4704 31.943 15.4704Z" stroke="black"/>
<path d="M33.8316 1H17.8858C17.8858 9.03922 25.5838 12.3889 29.4328 13.0588H44.8287C44.3888 4.61765 37.314 1.50245 33.8316 1Z" stroke="black"/>
<path d="M15.543 27.5296V1.00959H14.9807C10.4824 0.829185 1.48584 3.17449 1.48584 13.999C1.48584 24.8235 10.8573 27.5296 15.543 27.5296Z" stroke="black"/>
<path d="M13.6544 42H29.6001C29.6001 33.9608 21.9022 30.6111 18.0532 29.9412H2.65727C3.09715 38.3824 10.1719 41.4975 13.6544 42Z" stroke="black"/>
</svg>
